<svg xmlns="http://www.w3.org/2000/svg" xmlns:xlink="http://www.w3.org/1999/xlink" width="500" zoomAndPan="magnify" viewBox="0 0 375 374.999991" height="500" preserveAspectRatio="xMidYMid meet" version="1.2"><defs><clipPath id="038e049487"><path d="M 65.554688 154.40625 L 115 154.40625 L 115 204 L 65.554688 204 Z M 65.554688 154.40625 "/></clipPath><clipPath id="1506dc8507"><path d="M 79.820312 168.722656 L 100.503906 168.722656 L 100.503906 189.40625 L 79.820312 189.40625 Z M 79.820312 168.722656 "/></clipPath><clipPath id="20f62f0729"><path d="M 90.152344 189.40625 C 84.464844 189.40625 79.820312 184.761719 79.820312 179.058594 C 79.820312 173.367188 84.464844 168.722656 90.152344 168.722656 C 95.859375 168.722656 100.488281 173.367188 100.488281 179.058594 C 100.503906 184.761719 95.859375 189.40625 90.152344 189.40625 Z M 90.152344 174.414062 C 87.601562 174.414062 85.511719 176.503906 85.511719 179.058594 C 85.511719 181.609375 87.601562 183.703125 90.152344 183.703125 C 92.707031 183.703125 94.796875 181.609375 94.796875 179.058594 C 94.796875 176.503906 92.722656 174.414062 90.152344 174.414062 Z M 90.152344 174.414062 "/></clipPath><clipPath id="8b3a402c87"><path d="M 95.183594 159.535156 L 104.878906 159.535156 L 104.878906 169.230469 L 95.183594 169.230469 Z M 95.183594 159.535156 "/></clipPath><clipPath id="a40dbb68d1"><path d="M 100.03125 159.535156 C 97.355469 159.535156 95.183594 161.707031 95.183594 164.382812 C 95.183594 167.0625 97.355469 169.230469 100.03125 169.230469 C 102.710938 169.230469 104.878906 167.0625 104.878906 164.382812 C 104.878906 161.707031 102.710938 159.535156 100.03125 159.535156 Z M 100.03125 159.535156 "/></clipPath></defs><g id="15b0969d5a"><path style=" stroke:none;fill-rule:nonzero;fill:#0c1a62;fill-opacity:1;" d="M 129.152344 209.351562 L 114.835938 193.375 C 112.597656 196.847656 108.027344 201.214844 104.550781 203.453125 L 120.492188 218 C 122.894531 220.402344 126.777344 220.402344 129.164062 218 C 131.554688 215.625 131.554688 211.742188 129.152344 209.351562 Z M 129.152344 209.351562 "/><g clip-rule="nonzero" clip-path="url(#038e049487)"><path style=" stroke:none;fill-rule:nonzero;fill:#0c1a62;fill-opacity:1;" d="M 114.605469 178.9375 C 114.605469 165.398438 103.621094 154.414062 90.078125 154.414062 C 76.539062 154.414062 65.554688 165.398438 65.554688 178.9375 C 65.554688 192.480469 76.539062 203.464844 90.078125 203.464844 C 103.621094 203.464844 114.605469 192.480469 114.605469 178.9375 Z M 90.078125 197.332031 C 79.9375 197.332031 71.6875 189.082031 71.6875 178.9375 C 71.6875 168.796875 79.9375 160.546875 90.078125 160.546875 C 100.222656 160.546875 108.472656 168.796875 108.472656 178.9375 C 108.472656 189.082031 100.222656 197.332031 90.078125 197.332031 Z M 90.078125 197.332031 "/></g><g clip-rule="nonzero" clip-path="url(#1506dc8507)"><g clip-rule="nonzero" clip-path="url(#20f62f0729)"><path style=" stroke:none;fill-rule:nonzero;fill:#0c1a62;fill-opacity:1;" d="M 79.820312 168.722656 L 100.503906 168.722656 L 100.503906 189.40625 L 79.820312 189.40625 Z M 79.820312 168.722656 "/></g></g><g clip-rule="nonzero" clip-path="url(#8b3a402c87)"><g clip-rule="nonzero" clip-path="url(#a40dbb68d1)"><path style=" stroke:none;fill-rule:nonzero;fill:#0c1a62;fill-opacity:1;" d="M 95.183594 159.535156 L 104.878906 159.535156 L 104.878906 169.230469 L 95.183594 169.230469 Z M 95.183594 159.535156 "/></g></g><g style="fill:#0c1a62;fill-opacity:1;"><g transform="translate(125.422907, 176.159196)"><path style="stroke:none" d="M 8.953125 -15.875 C 10.117188 -15.875 11.265625 -15.632812 12.390625 -15.15625 C 13.523438 -14.675781 14.492188 -14.03125 15.296875 -13.21875 L 12.96875 -10.484375 C 12.457031 -11.109375 11.847656 -11.601562 11.140625 -11.96875 C 10.429688 -12.34375 9.722656 -12.53125 9.015625 -12.53125 C 7.773438 -12.53125 6.734375 -12.085938 5.890625 -11.203125 C 5.046875 -10.328125 4.625 -9.242188 4.625 -7.953125 C 4.625 -6.640625 5.046875 -5.539062 5.890625 -4.65625 C 6.734375 -3.769531 7.773438 -3.328125 9.015625 -3.328125 C 9.671875 -3.328125 10.351562 -3.488281 11.0625 -3.8125 C 11.78125 -4.144531 12.414062 -4.597656 12.96875 -5.171875 L 15.3125 -2.703125 C 14.457031 -1.828125 13.445312 -1.125 12.28125 -0.59375 C 11.125 -0.0703125 9.96875 0.1875 8.8125 0.1875 C 6.445312 0.1875 4.476562 -0.582031 2.90625 -2.125 C 1.332031 -3.675781 0.546875 -5.609375 0.546875 -7.921875 C 0.546875 -10.179688 1.34375 -12.070312 2.9375 -13.59375 C 4.539062 -15.113281 6.546875 -15.875 8.953125 -15.875 Z M 8.953125 -15.875 "/></g></g><g style="fill:#0c1a62;fill-opacity:1;"><g transform="translate(142.708188, 176.159196)"><path style="stroke:none" d="M 11.0625 0 L 8.71875 -4.421875 L 5.578125 -4.421875 L 5.578125 0 L 1.578125 0 L 1.578125 -15.734375 L 8.609375 -15.734375 C 10.691406 -15.734375 12.300781 -15.257812 13.4375 -14.3125 C 14.582031 -13.363281 15.15625 -12.007812 15.15625 -10.25 C 15.15625 -7.820312 14.203125 -6.132812 12.296875 -5.1875 L 15.609375 0 Z M 5.578125 -7.578125 L 8.609375 -7.578125 C 9.484375 -7.578125 10.160156 -7.789062 10.640625 -8.21875 C 11.117188 -8.65625 11.359375 -9.289062 11.359375 -10.125 C 11.359375 -10.925781 11.117188 -11.535156 10.640625 -11.953125 C 10.160156 -12.378906 9.484375 -12.59375 8.609375 -12.59375 L 5.578125 -12.59375 Z M 5.578125 -7.578125 "/></g></g><g style="fill:#0c1a62;fill-opacity:1;"><g transform="translate(160.712718, 176.159196)"><path style="stroke:none" d="M 5.578125 0 L 1.578125 0 L 1.578125 -15.734375 L 5.578125 -15.734375 Z M 5.578125 0 "/></g></g><g style="fill:#0c1a62;fill-opacity:1;"><g transform="translate(169.591765, 176.159196)"><path style="stroke:none" d="M 18.859375 0 L 15.328125 0 L 15.3125 -10.234375 L 11.53125 -1.578125 L 8.921875 -1.578125 L 5.15625 -10.234375 L 5.15625 0 L 1.578125 0 L 1.578125 -15.765625 L 5.953125 -15.765625 L 10.234375 -6.390625 L 14.5 -15.765625 L 18.859375 -15.765625 Z M 18.859375 0 "/></g></g><g style="fill:#0c1a62;fill-opacity:1;"><g transform="translate(191.776925, 176.159196)"><path style="stroke:none" d="M 13.890625 -12.59375 L 5.578125 -12.59375 L 5.578125 -9.46875 L 13.078125 -9.46875 L 13.078125 -6.3125 L 5.578125 -6.3125 L 5.578125 -3.140625 L 14.140625 -3.140625 L 14.140625 0 L 1.578125 0 L 1.578125 -15.734375 L 13.890625 -15.734375 Z M 13.890625 -12.59375 "/></g></g><g style="fill:#0c1a62;fill-opacity:1;"><g transform="translate(208.657623, 176.159196)"><path style="stroke:none" d="M 19.265625 0 L 15.15625 0 L 12.234375 -10.875 L 9.265625 0 L 5.125 0 L -0.015625 -15.734375 L 4.25 -15.734375 L 7.328125 -4.15625 L 10.34375 -15.734375 L 14.25 -15.734375 L 17.328125 -4.15625 L 20.375 -15.734375 L 24.46875 -15.734375 Z M 19.265625 0 "/></g></g><g style="fill:#0c1a62;fill-opacity:1;"><g transform="translate(234.686281, 176.159196)"><path style="stroke:none" d="M 12.03125 -2.90625 L 5.15625 -2.90625 L 4 0 L -0.109375 0 L 6.671875 -15.734375 L 10.796875 -15.734375 L 17.421875 0 L 13.15625 0 Z M 10.859375 -5.9375 L 8.609375 -11.765625 L 6.3125 -5.9375 Z M 10.859375 -5.9375 "/></g></g><g style="fill:#0c1a62;fill-opacity:1;"><g transform="translate(253.724728, 176.159196)"><path style="stroke:none" d="M 13.609375 -12.53125 L 8.859375 -12.53125 L 8.859375 0 L 4.859375 0 L 4.859375 -12.53125 L 0.15625 -12.53125 L 0.15625 -15.765625 L 13.609375 -15.765625 Z M 13.609375 -12.53125 "/></g></g><g style="fill:#0c1a62;fill-opacity:1;"><g transform="translate(269.189403, 176.159196)"><path style="stroke:none" d="M 8.953125 -15.875 C 10.117188 -15.875 11.265625 -15.632812 12.390625 -15.15625 C 13.523438 -14.675781 14.492188 -14.03125 15.296875 -13.21875 L 12.96875 -10.484375 C 12.457031 -11.109375 11.847656 -11.601562 11.140625 -11.96875 C 10.429688 -12.34375 9.722656 -12.53125 9.015625 -12.53125 C 7.773438 -12.53125 6.734375 -12.085938 5.890625 -11.203125 C 5.046875 -10.328125 4.625 -9.242188 4.625 -7.953125 C 4.625 -6.640625 5.046875 -5.539062 5.890625 -4.65625 C 6.734375 -3.769531 7.773438 -3.328125 9.015625 -3.328125 C 9.671875 -3.328125 10.351562 -3.488281 11.0625 -3.8125 C 11.78125 -4.144531 12.414062 -4.597656 12.96875 -5.171875 L 15.3125 -2.703125 C 14.457031 -1.828125 13.445312 -1.125 12.28125 -0.59375 C 11.125 -0.0703125 9.96875 0.1875 8.8125 0.1875 C 6.445312 0.1875 4.476562 -0.582031 2.90625 -2.125 C 1.332031 -3.675781 0.546875 -5.609375 0.546875 -7.921875 C 0.546875 -10.179688 1.34375 -12.070312 2.9375 -13.59375 C 4.539062 -15.113281 6.546875 -15.875 8.953125 -15.875 Z M 8.953125 -15.875 "/></g></g><g style="fill:#0c1a62;fill-opacity:1;"><g transform="translate(286.474685, 176.159196)"><path style="stroke:none" d="M 16.09375 0 L 12.09375 0 L 12.09375 -6.109375 L 5.578125 -6.109375 L 5.578125 0 L 1.578125 0 L 1.578125 -15.734375 L 5.578125 -15.734375 L 5.578125 -9.265625 L 12.09375 -9.265625 L 12.09375 -15.734375 L 16.09375 -15.734375 Z M 16.09375 0 "/></g></g><g style="fill:#0c1a62;fill-opacity:1;"><g transform="translate(125.422907, 188.753641)"><path style="stroke:none" d="M 6.421875 0 L 5.21875 0 L 5.21875 -3.484375 L 3.921875 -0.53125 L 3.046875 -0.53125 L 1.75 -3.484375 L 1.75 0 L 0.53125 0 L 0.53125 -5.359375 L 2.03125 -5.359375 L 3.484375 -2.171875 L 4.9375 -5.359375 L 6.421875 -5.359375 Z M 6.421875 0 "/></g></g><g style="fill:#0c1a62;fill-opacity:1;"><g transform="translate(133.844893, 188.753641)"><path style="stroke:none" d="M 3.078125 -5.40625 C 3.910156 -5.40625 4.601562 -5.144531 5.15625 -4.625 C 5.707031 -4.101562 5.984375 -3.457031 5.984375 -2.6875 C 5.984375 -1.90625 5.703125 -1.25 5.140625 -0.71875 C 4.585938 -0.195312 3.898438 0.0625 3.078125 0.0625 C 2.253906 0.0625 1.566406 -0.195312 1.015625 -0.71875 C 0.460938 -1.25 0.1875 -1.90625 0.1875 -2.6875 C 0.1875 -3.46875 0.460938 -4.113281 1.015625 -4.625 C 1.566406 -5.144531 2.253906 -5.40625 3.078125 -5.40625 Z M 3.09375 -4.265625 C 2.675781 -4.265625 2.316406 -4.113281 2.015625 -3.8125 C 1.722656 -3.507812 1.578125 -3.128906 1.578125 -2.671875 C 1.578125 -2.222656 1.722656 -1.84375 2.015625 -1.53125 C 2.316406 -1.226562 2.675781 -1.078125 3.09375 -1.078125 C 3.507812 -1.078125 3.859375 -1.226562 4.140625 -1.53125 C 4.429688 -1.84375 4.578125 -2.222656 4.578125 -2.671875 C 4.578125 -3.128906 4.429688 -3.507812 4.140625 -3.8125 C 3.859375 -4.113281 3.507812 -4.265625 3.09375 -4.265625 Z M 3.09375 -4.265625 "/></g></g><g style="fill:#0c1a62;fill-opacity:1;"><g transform="translate(141.46296, 188.753641)"><path style="stroke:none" d="M 2.59375 -5.421875 C 3.394531 -5.421875 4.097656 -5.222656 4.703125 -4.828125 L 4.203125 -3.765625 C 3.921875 -3.921875 3.617188 -4.050781 3.296875 -4.15625 C 2.972656 -4.257812 2.703125 -4.3125 2.484375 -4.3125 C 2.085938 -4.3125 1.890625 -4.179688 1.890625 -3.921875 C 1.890625 -3.753906 1.984375 -3.617188 2.171875 -3.515625 C 2.367188 -3.421875 2.609375 -3.332031 2.890625 -3.25 C 3.171875 -3.175781 3.445312 -3.085938 3.71875 -2.984375 C 4 -2.878906 4.234375 -2.707031 4.421875 -2.46875 C 4.617188 -2.238281 4.71875 -1.945312 4.71875 -1.59375 C 4.71875 -1.070312 4.515625 -0.664062 4.109375 -0.375 C 3.710938 -0.09375 3.203125 0.046875 2.578125 0.046875 C 2.140625 0.046875 1.703125 -0.0234375 1.265625 -0.171875 C 0.828125 -0.328125 0.445312 -0.539062 0.125 -0.8125 L 0.65625 -1.859375 C 0.925781 -1.628906 1.242188 -1.4375 1.609375 -1.28125 C 1.984375 -1.132812 2.3125 -1.0625 2.59375 -1.0625 C 2.8125 -1.0625 2.984375 -1.097656 3.109375 -1.171875 C 3.234375 -1.253906 3.296875 -1.375 3.296875 -1.53125 C 3.296875 -1.675781 3.222656 -1.796875 3.078125 -1.890625 C 2.941406 -1.992188 2.769531 -2.066406 2.5625 -2.109375 C 2.351562 -2.160156 2.125 -2.226562 1.875 -2.3125 C 1.632812 -2.394531 1.40625 -2.484375 1.1875 -2.578125 C 0.976562 -2.671875 0.800781 -2.820312 0.65625 -3.03125 C 0.519531 -3.25 0.453125 -3.507812 0.453125 -3.8125 C 0.453125 -4.300781 0.644531 -4.691406 1.03125 -4.984375 C 1.425781 -5.273438 1.945312 -5.421875 2.59375 -5.421875 Z M 2.59375 -5.421875 "/></g></g><g style="fill:#0c1a62;fill-opacity:1;"><g transform="translate(147.848357, 188.753641)"><path style="stroke:none" d="M 4.625 -4.265625 L 3.015625 -4.265625 L 3.015625 0 L 1.65625 0 L 1.65625 -4.265625 L 0.046875 -4.265625 L 0.046875 -5.359375 L 4.625 -5.359375 Z M 4.625 -4.265625 "/></g></g><g style="fill:#0c1a62;fill-opacity:1;"><g transform="translate(153.981089, 188.753641)"><path style="stroke:none" d=""/></g></g><g style="fill:#0c1a62;fill-opacity:1;"><g transform="translate(157.212068, 188.753641)"><path style="stroke:none" d="M 6.5625 0 L 5.15625 0 L 4.171875 -3.703125 L 3.15625 0 L 1.75 0 L 0 -5.359375 L 1.453125 -5.359375 L 2.5 -1.421875 L 3.515625 -5.359375 L 4.859375 -5.359375 L 5.90625 -1.421875 L 6.9375 -5.359375 L 8.328125 -5.359375 Z M 6.5625 0 "/></g></g><g style="fill:#0c1a62;fill-opacity:1;"><g transform="translate(166.943294, 188.753641)"><path style="stroke:none" d="M 4.09375 -0.984375 L 1.75 -0.984375 L 1.359375 0 L -0.03125 0 L 2.28125 -5.359375 L 3.671875 -5.359375 L 5.9375 0 L 4.484375 0 Z M 3.703125 -2.015625 L 2.9375 -4 L 2.15625 -2.015625 Z M 3.703125 -2.015625 "/></g></g><g style="fill:#0c1a62;fill-opacity:1;"><g transform="translate(174.293392, 188.753641)"><path style="stroke:none" d="M 5.484375 0 L 4.28125 0 L 1.8125 -3.296875 L 1.8125 0 L 0.53125 0 L 0.53125 -5.359375 L 1.734375 -5.359375 L 4.21875 -2.046875 L 4.21875 -5.359375 L 5.484375 -5.359375 Z M 5.484375 0 "/></g></g><g style="fill:#0c1a62;fill-opacity:1;"><g transform="translate(181.765991, 188.753641)"><path style="stroke:none" d="M 4.625 -4.265625 L 3.015625 -4.265625 L 3.015625 0 L 1.65625 0 L 1.65625 -4.265625 L 0.046875 -4.265625 L 0.046875 -5.359375 L 4.625 -5.359375 Z M 4.625 -4.265625 "/></g></g><g style="fill:#0c1a62;fill-opacity:1;"><g transform="translate(187.898723, 188.753641)"><path style="stroke:none" d="M 4.734375 -4.28125 L 1.90625 -4.28125 L 1.90625 -3.21875 L 4.453125 -3.21875 L 4.453125 -2.15625 L 1.90625 -2.15625 L 1.90625 -1.078125 L 4.8125 -1.078125 L 4.8125 0 L 0.53125 0 L 0.53125 -5.359375 L 4.734375 -5.359375 Z M 4.734375 -4.28125 "/></g></g><g style="fill:#0c1a62;fill-opacity:1;"><g transform="translate(194.51381, 188.753641)"><path style="stroke:none" d="M 0.53125 -5.359375 L 2.84375 -5.359375 C 3.6875 -5.359375 4.367188 -5.109375 4.890625 -4.609375 C 5.421875 -4.117188 5.6875 -3.476562 5.6875 -2.6875 C 5.6875 -1.894531 5.414062 -1.25 4.875 -0.75 C 4.34375 -0.25 3.644531 0 2.78125 0 L 0.53125 0 Z M 1.90625 -4.265625 L 1.90625 -1.09375 L 2.875 -1.09375 C 3.289062 -1.09375 3.628906 -1.238281 3.890625 -1.53125 C 4.160156 -1.820312 4.296875 -2.203125 4.296875 -2.671875 C 4.296875 -3.140625 4.15625 -3.519531 3.875 -3.8125 C 3.59375 -4.113281 3.238281 -4.265625 2.8125 -4.265625 Z M 1.90625 -4.265625 "/></g></g><g style="fill:#0c1a62;fill-opacity:1;"><g transform="translate(201.840942, 188.753641)"><path style="stroke:none" d="M 0.46875 -1.03125 C 0.582031 -1.15625 0.734375 -1.21875 0.921875 -1.21875 C 1.109375 -1.21875 1.257812 -1.15625 1.375 -1.03125 C 1.5 -0.914062 1.5625 -0.765625 1.5625 -0.578125 C 1.5625 -0.390625 1.5 -0.234375 1.375 -0.109375 C 1.257812 0.00390625 1.109375 0.0625 0.921875 0.0625 C 0.734375 0.0625 0.582031 0.00390625 0.46875 -0.109375 C 0.351562 -0.234375 0.296875 -0.390625 0.296875 -0.578125 C 0.296875 -0.765625 0.351562 -0.914062 0.46875 -1.03125 Z M 0.46875 -1.03125 "/></g></g><g style="fill:#0c1a62;fill-opacity:1;"><g transform="translate(205.156133, 188.753641)"><path style="stroke:none" d=""/></g></g><g style="fill:#0c1a62;fill-opacity:1;"><g transform="translate(208.387111, 188.753641)"><path style="stroke:none" d="M 6.421875 0 L 5.21875 0 L 5.21875 -3.484375 L 3.921875 -0.53125 L 3.046875 -0.53125 L 1.75 -3.484375 L 1.75 0 L 0.53125 0 L 0.53125 -5.359375 L 2.03125 -5.359375 L 3.484375 -2.171875 L 4.9375 -5.359375 L 6.421875 -5.359375 Z M 6.421875 0 "/></g></g><g style="fill:#0c1a62;fill-opacity:1;"><g transform="translate(216.809097, 188.753641)"><path style="stroke:none" d="M 3.078125 -5.40625 C 3.910156 -5.40625 4.601562 -5.144531 5.15625 -4.625 C 5.707031 -4.101562 5.984375 -3.457031 5.984375 -2.6875 C 5.984375 -1.90625 5.703125 -1.25 5.140625 -0.71875 C 4.585938 -0.195312 3.898438 0.0625 3.078125 0.0625 C 2.253906 0.0625 1.566406 -0.195312 1.015625 -0.71875 C 0.460938 -1.25 0.1875 -1.90625 0.1875 -2.6875 C 0.1875 -3.46875 0.460938 -4.113281 1.015625 -4.625 C 1.566406 -5.144531 2.253906 -5.40625 3.078125 -5.40625 Z M 3.09375 -4.265625 C 2.675781 -4.265625 2.316406 -4.113281 2.015625 -3.8125 C 1.722656 -3.507812 1.578125 -3.128906 1.578125 -2.671875 C 1.578125 -2.222656 1.722656 -1.84375 2.015625 -1.53125 C 2.316406 -1.226562 2.675781 -1.078125 3.09375 -1.078125 C 3.507812 -1.078125 3.859375 -1.226562 4.140625 -1.53125 C 4.429688 -1.84375 4.578125 -2.222656 4.578125 -2.671875 C 4.578125 -3.128906 4.429688 -3.507812 4.140625 -3.8125 C 3.859375 -4.113281 3.507812 -4.265625 3.09375 -4.265625 Z M 3.09375 -4.265625 "/></g></g><g style="fill:#0c1a62;fill-opacity:1;"><g transform="translate(224.427165, 188.753641)"><path style="stroke:none" d="M 2.59375 -5.421875 C 3.394531 -5.421875 4.097656 -5.222656 4.703125 -4.828125 L 4.203125 -3.765625 C 3.921875 -3.921875 3.617188 -4.050781 3.296875 -4.15625 C 2.972656 -4.257812 2.703125 -4.3125 2.484375 -4.3125 C 2.085938 -4.3125 1.890625 -4.179688 1.890625 -3.921875 C 1.890625 -3.753906 1.984375 -3.617188 2.171875 -3.515625 C 2.367188 -3.421875 2.609375 -3.332031 2.890625 -3.25 C 3.171875 -3.175781 3.445312 -3.085938 3.71875 -2.984375 C 4 -2.878906 4.234375 -2.707031 4.421875 -2.46875 C 4.617188 -2.238281 4.71875 -1.945312 4.71875 -1.59375 C 4.71875 -1.070312 4.515625 -0.664062 4.109375 -0.375 C 3.710938 -0.09375 3.203125 0.046875 2.578125 0.046875 C 2.140625 0.046875 1.703125 -0.0234375 1.265625 -0.171875 C 0.828125 -0.328125 0.445312 -0.539062 0.125 -0.8125 L 0.65625 -1.859375 C 0.925781 -1.628906 1.242188 -1.4375 1.609375 -1.28125 C 1.984375 -1.132812 2.3125 -1.0625 2.59375 -1.0625 C 2.8125 -1.0625 2.984375 -1.097656 3.109375 -1.171875 C 3.234375 -1.253906 3.296875 -1.375 3.296875 -1.53125 C 3.296875 -1.675781 3.222656 -1.796875 3.078125 -1.890625 C 2.941406 -1.992188 2.769531 -2.066406 2.5625 -2.109375 C 2.351562 -2.160156 2.125 -2.226562 1.875 -2.3125 C 1.632812 -2.394531 1.40625 -2.484375 1.1875 -2.578125 C 0.976562 -2.671875 0.800781 -2.820312 0.65625 -3.03125 C 0.519531 -3.25 0.453125 -3.507812 0.453125 -3.8125 C 0.453125 -4.300781 0.644531 -4.691406 1.03125 -4.984375 C 1.425781 -5.273438 1.945312 -5.421875 2.59375 -5.421875 Z M 2.59375 -5.421875 "/></g></g><g style="fill:#0c1a62;fill-opacity:1;"><g transform="translate(230.812562, 188.753641)"><path style="stroke:none" d="M 4.625 -4.265625 L 3.015625 -4.265625 L 3.015625 0 L 1.65625 0 L 1.65625 -4.265625 L 0.046875 -4.265625 L 0.046875 -5.359375 L 4.625 -5.359375 Z M 4.625 -4.265625 "/></g></g><g style="fill:#0c1a62;fill-opacity:1;"><g transform="translate(236.945294, 188.753641)"><path style="stroke:none" d=""/></g></g><g style="fill:#0c1a62;fill-opacity:1;"><g transform="translate(240.176273, 188.753641)"><path style="stroke:none" d="M 6.5625 0 L 5.15625 0 L 4.171875 -3.703125 L 3.15625 0 L 1.75 0 L 0 -5.359375 L 1.453125 -5.359375 L 2.5 -1.421875 L 3.515625 -5.359375 L 4.859375 -5.359375 L 5.90625 -1.421875 L 6.9375 -5.359375 L 8.328125 -5.359375 Z M 6.5625 0 "/></g></g><g style="fill:#0c1a62;fill-opacity:1;"><g transform="translate(249.907498, 188.753641)"><path style="stroke:none" d="M 4.09375 -0.984375 L 1.75 -0.984375 L 1.359375 0 L -0.03125 0 L 2.28125 -5.359375 L 3.671875 -5.359375 L 5.9375 0 L 4.484375 0 Z M 3.703125 -2.015625 L 2.9375 -4 L 2.15625 -2.015625 Z M 3.703125 -2.015625 "/></g></g><g style="fill:#0c1a62;fill-opacity:1;"><g transform="translate(257.257596, 188.753641)"><path style="stroke:none" d="M 4.625 -4.265625 L 3.015625 -4.265625 L 3.015625 0 L 1.65625 0 L 1.65625 -4.265625 L 0.046875 -4.265625 L 0.046875 -5.359375 L 4.625 -5.359375 Z M 4.625 -4.265625 "/></g></g><g style="fill:#0c1a62;fill-opacity:1;"><g transform="translate(263.390328, 188.753641)"><path style="stroke:none" d="M 3.046875 -5.40625 C 3.441406 -5.40625 3.832031 -5.320312 4.21875 -5.15625 C 4.601562 -5 4.929688 -4.78125 5.203125 -4.5 L 4.421875 -3.5625 C 4.242188 -3.78125 4.035156 -3.953125 3.796875 -4.078125 C 3.554688 -4.203125 3.3125 -4.265625 3.0625 -4.265625 C 2.644531 -4.265625 2.289062 -4.113281 2 -3.8125 C 1.71875 -3.519531 1.578125 -3.148438 1.578125 -2.703125 C 1.578125 -2.253906 1.71875 -1.878906 2 -1.578125 C 2.289062 -1.285156 2.644531 -1.140625 3.0625 -1.140625 C 3.289062 -1.140625 3.523438 -1.191406 3.765625 -1.296875 C 4.015625 -1.410156 4.234375 -1.566406 4.421875 -1.765625 L 5.21875 -0.921875 C 4.925781 -0.617188 4.582031 -0.378906 4.1875 -0.203125 C 3.789062 -0.0234375 3.394531 0.0625 3 0.0625 C 2.195312 0.0625 1.523438 -0.195312 0.984375 -0.71875 C 0.453125 -1.25 0.1875 -1.90625 0.1875 -2.6875 C 0.1875 -3.457031 0.457031 -4.101562 1 -4.625 C 1.550781 -5.144531 2.234375 -5.40625 3.046875 -5.40625 Z M 3.046875 -5.40625 "/></g></g><g style="fill:#0c1a62;fill-opacity:1;"><g transform="translate(270.143231, 188.753641)"><path style="stroke:none" d="M 5.484375 0 L 4.125 0 L 4.125 -2.078125 L 1.90625 -2.078125 L 1.90625 0 L 0.53125 0 L 0.53125 -5.359375 L 1.90625 -5.359375 L 1.90625 -3.15625 L 4.125 -3.15625 L 4.125 -5.359375 L 5.484375 -5.359375 Z M 5.484375 0 "/></g></g><g style="fill:#0c1a62;fill-opacity:1;"><g transform="translate(277.61583, 188.753641)"><path style="stroke:none" d="M 4.734375 -4.28125 L 1.90625 -4.28125 L 1.90625 -3.21875 L 4.453125 -3.21875 L 4.453125 -2.15625 L 1.90625 -2.15625 L 1.90625 -1.078125 L 4.8125 -1.078125 L 4.8125 0 L 0.53125 0 L 0.53125 -5.359375 L 4.734375 -5.359375 Z M 4.734375 -4.28125 "/></g></g><g style="fill:#0c1a62;fill-opacity:1;"><g transform="translate(284.230917, 188.753641)"><path style="stroke:none" d="M 0.53125 -5.359375 L 2.84375 -5.359375 C 3.6875 -5.359375 4.367188 -5.109375 4.890625 -4.609375 C 5.421875 -4.117188 5.6875 -3.476562 5.6875 -2.6875 C 5.6875 -1.894531 5.414062 -1.25 4.875 -0.75 C 4.34375 -0.25 3.644531 0 2.78125 0 L 0.53125 0 Z M 1.90625 -4.265625 L 1.90625 -1.09375 L 2.875 -1.09375 C 3.289062 -1.09375 3.628906 -1.238281 3.890625 -1.53125 C 4.160156 -1.820312 4.296875 -2.203125 4.296875 -2.671875 C 4.296875 -3.140625 4.15625 -3.519531 3.875 -3.8125 C 3.59375 -4.113281 3.238281 -4.265625 2.8125 -4.265625 Z M 1.90625 -4.265625 "/></g></g><g style="fill:#0c1a62;fill-opacity:1;"><g transform="translate(291.558039, 188.753641)"><path style="stroke:none" d="M 0.46875 -1.03125 C 0.582031 -1.15625 0.734375 -1.21875 0.921875 -1.21875 C 1.109375 -1.21875 1.257812 -1.15625 1.375 -1.03125 C 1.5 -0.914062 1.5625 -0.765625 1.5625 -0.578125 C 1.5625 -0.390625 1.5 -0.234375 1.375 -0.109375 C 1.257812 0.00390625 1.109375 0.0625 0.921875 0.0625 C 0.734375 0.0625 0.582031 0.00390625 0.46875 -0.109375 C 0.351562 -0.234375 0.296875 -0.390625 0.296875 -0.578125 C 0.296875 -0.765625 0.351562 -0.914062 0.46875 -1.03125 Z M 0.46875 -1.03125 "/></g></g></g></svg>