<svg xmlns="http://www.w3.org/2000/svg" xmlns:xlink="http://www.w3.org/1999/xlink" width="500" zoomAndPan="magnify" viewBox="0 0 375 374.999991" height="500" preserveAspectRatio="xMidYMid meet" version="1.2"><defs><clipPath id="13487f5e03"><path d="M 134.871094 134.871094 L 213 134.871094 L 213 213 L 134.871094 213 Z M 134.871094 134.871094 "/></clipPath><clipPath id="6122cea073"><path d="M 157.558594 157.636719 L 190.453125 157.636719 L 190.453125 190.53125 L 157.558594 190.53125 Z M 157.558594 157.636719 "/></clipPath><clipPath id="3267c18737"><path d="M 173.992188 190.53125 C 164.945312 190.53125 157.558594 183.148438 157.558594 174.074219 C 157.558594 165.023438 164.945312 157.636719 173.992188 157.636719 C 183.066406 157.636719 190.429688 165.023438 190.429688 174.074219 C 190.453125 183.148438 183.066406 190.53125 173.992188 190.53125 Z M 173.992188 166.6875 C 169.933594 166.6875 166.605469 170.011719 166.605469 174.074219 C 166.605469 178.132812 169.933594 181.460938 173.992188 181.460938 C 178.050781 181.460938 181.378906 178.132812 181.378906 174.074219 C 181.378906 170.011719 178.078125 166.6875 173.992188 166.6875 Z M 173.992188 166.6875 "/></clipPath><clipPath id="c08049e4c6"><path d="M 181.992188 143.023438 L 197.414062 143.023438 L 197.414062 158.445312 L 181.992188 158.445312 Z M 181.992188 143.023438 "/></clipPath><clipPath id="f2c097aa84"><path d="M 189.703125 143.023438 C 185.445312 143.023438 181.992188 146.476562 181.992188 150.734375 C 181.992188 154.992188 185.445312 158.445312 189.703125 158.445312 C 193.960938 158.445312 197.414062 154.992188 197.414062 150.734375 C 197.414062 146.476562 193.960938 143.023438 189.703125 143.023438 Z M 189.703125 143.023438 "/></clipPath></defs><g id="bd96fd00c7"><path style=" stroke:none;fill-rule:nonzero;fill:#0c1a62;fill-opacity:1;" d="M 236.046875 222.28125 L 213.269531 196.859375 C 209.710938 202.386719 202.4375 209.335938 196.910156 212.894531 L 222.269531 236.039062 C 226.089844 239.859375 232.269531 239.859375 236.070312 236.039062 C 239.871094 232.257812 239.871094 226.082031 236.046875 222.28125 Z M 236.046875 222.28125 "/><g clip-rule="nonzero" clip-path="url(#13487f5e03)"><path style=" stroke:none;fill-rule:nonzero;fill:#0c1a62;fill-opacity:1;" d="M 212.902344 173.894531 C 212.902344 152.355469 195.425781 134.878906 173.886719 134.878906 C 152.34375 134.878906 134.871094 152.355469 134.871094 173.894531 C 134.871094 195.4375 152.34375 212.914062 173.886719 212.914062 C 195.425781 212.914062 212.902344 195.4375 212.902344 173.894531 Z M 173.886719 203.160156 C 157.75 203.160156 144.625 190.03125 144.625 173.894531 C 144.625 157.761719 157.75 144.632812 173.886719 144.632812 C 190.019531 144.632812 203.148438 157.761719 203.148438 173.894531 C 203.148438 190.03125 190.019531 203.160156 173.886719 203.160156 Z M 173.886719 203.160156 "/></g><g clip-rule="nonzero" clip-path="url(#6122cea073)"><g clip-rule="nonzero" clip-path="url(#3267c18737)"><path style=" stroke:none;fill-rule:nonzero;fill:#0c1a62;fill-opacity:1;" d="M 157.558594 157.636719 L 190.453125 157.636719 L 190.453125 190.53125 L 157.558594 190.53125 Z M 157.558594 157.636719 "/></g></g><g clip-rule="nonzero" clip-path="url(#c08049e4c6)"><g clip-rule="nonzero" clip-path="url(#f2c097aa84)"><path style=" stroke:none;fill-rule:nonzero;fill:#0c1a62;fill-opacity:1;" d="M 181.992188 143.023438 L 197.414062 143.023438 L 197.414062 158.445312 L 181.992188 158.445312 Z M 181.992188 143.023438 "/></g></g></g></svg>