<svg xmlns="http://www.w3.org/2000/svg" xmlns:xlink="http://www.w3.org/1999/xlink" width="60" zoomAndPan="magnify" viewBox="0 0 45 44.999999" height="60" preserveAspectRatio="xMidYMid meet" version="1.2"><defs><clipPath id="4111c50c82"><path d="M 25 25 L 42.898438 25 L 42.898438 42.898438 L 25 42.898438 Z M 25 25 "/></clipPath><clipPath id="ca53f843e4"><path d="M 0.675781 0.675781 L 33 0.675781 L 33 33 L 0.675781 33 Z M 0.675781 0.675781 "/></clipPath><clipPath id="7a2df30aa6"><path d="M 9.777344 9.808594 L 22.972656 9.808594 L 22.972656 23.003906 L 9.777344 23.003906 Z M 9.777344 9.808594 "/></clipPath><clipPath id="9f312ec1a7"><path d="M 16.371094 23.003906 C 12.738281 23.003906 9.777344 20.042969 9.777344 16.402344 C 9.777344 12.773438 12.738281 9.808594 16.371094 9.808594 C 20.007812 9.808594 22.960938 12.773438 22.960938 16.402344 C 22.972656 20.042969 20.007812 23.003906 16.371094 23.003906 Z M 16.371094 13.4375 C 14.742188 13.4375 13.40625 14.773438 13.40625 16.402344 C 13.40625 18.03125 14.742188 19.363281 16.371094 19.363281 C 17.996094 19.363281 19.332031 18.03125 19.332031 16.402344 C 19.332031 14.773438 18.007812 13.4375 16.371094 13.4375 Z M 16.371094 13.4375 "/></clipPath><clipPath id="d4c0bef565"><path d="M 19.578125 3.945312 L 25.765625 3.945312 L 25.765625 10.132812 L 19.578125 10.132812 Z M 19.578125 3.945312 "/></clipPath><clipPath id="877c228c9e"><path d="M 22.671875 3.945312 C 20.964844 3.945312 19.578125 5.332031 19.578125 7.039062 C 19.578125 8.746094 20.964844 10.132812 22.671875 10.132812 C 24.378906 10.132812 25.765625 8.746094 25.765625 7.039062 C 25.765625 5.332031 24.378906 3.945312 22.671875 3.945312 Z M 22.671875 3.945312 "/></clipPath></defs><g id="52057a5a02"><g clip-rule="nonzero" clip-path="url(#4111c50c82)"><path style=" stroke:none;fill-rule:nonzero;fill:#ffffff;fill-opacity:1;" d="M 41.363281 35.828125 L 32.203125 25.605469 C 30.773438 27.828125 27.847656 30.621094 25.625 32.050781 L 35.824219 41.359375 C 37.359375 42.894531 39.84375 42.894531 41.371094 41.359375 C 42.898438 39.839844 42.898438 37.355469 41.363281 35.828125 Z M 41.363281 35.828125 "/></g><g clip-rule="nonzero" clip-path="url(#ca53f843e4)"><path style=" stroke:none;fill-rule:nonzero;fill:#ffffff;fill-opacity:1;" d="M 32.054688 16.371094 C 32.054688 7.707031 25.027344 0.679688 16.367188 0.679688 C 7.703125 0.679688 0.675781 7.707031 0.675781 16.371094 C 0.675781 25.03125 7.703125 32.058594 16.367188 32.058594 C 25.027344 32.058594 32.054688 25.03125 32.054688 16.371094 Z M 16.367188 28.136719 C 9.875 28.136719 4.597656 22.859375 4.597656 16.371094 C 4.597656 9.878906 9.875 4.601562 16.367188 4.601562 C 22.855469 4.601562 28.132812 9.878906 28.132812 16.371094 C 28.132812 22.859375 22.855469 28.136719 16.367188 28.136719 Z M 16.367188 28.136719 "/></g><g clip-rule="nonzero" clip-path="url(#7a2df30aa6)"><g clip-rule="nonzero" clip-path="url(#9f312ec1a7)"><path style=" stroke:none;fill-rule:nonzero;fill:#ffffff;fill-opacity:1;" d="M 9.777344 9.808594 L 22.972656 9.808594 L 22.972656 23.003906 L 9.777344 23.003906 Z M 9.777344 9.808594 "/></g></g><g clip-rule="nonzero" clip-path="url(#d4c0bef565)"><g clip-rule="nonzero" clip-path="url(#877c228c9e)"><path style=" stroke:none;fill-rule:nonzero;fill:#ffffff;fill-opacity:1;" d="M 19.578125 3.945312 L 25.765625 3.945312 L 25.765625 10.132812 L 19.578125 10.132812 Z M 19.578125 3.945312 "/></g></g></g></svg>